<svg id="レイヤー_1" data-name="レイヤー 1" xmlns="http://www.w3.org/2000/svg" viewBox="0 0 595.28 595.28"><defs><style>.cls-1{fill:#2e6eae;}.cls-2{fill:#4f5251;}</style></defs><path class="cls-1" d="M115.62,496.53,330.81,76.43h66.51L174.68,510.27a89,89,0,0,1-59.36-13.93"/><path class="cls-2" d="M452.16,78.91l0,0A144.08,144.08,0,0,1,347.89,282.08l-.05.11A144,144,0,0,1,231.39,510.9H431.23A88.72,88.72,0,0,0,520,422.18v-257A88.76,88.76,0,0,0,452.16,78.91Z"/><path class="cls-2" d="M230.46,510.9h0Z"/><path class="cls-2" d="M189.51,199.69,252.77,76.43H164.05a88.72,88.72,0,0,0-88.72,88.72v34.54Z"/><polygon class="cls-2" points="75.33 241.16 75.33 422.18 168.23 241.16 75.33 241.16"/></svg>